<?xml version="1.0" encoding="UTF-8" standalone="no"?>
<!-- Created with Inkscape (http://www.inkscape.org/) -->

<svg
   width="52.52853mm"
   height="47.685688mm"
   viewBox="0 0 198.53303 180.22937"
   version="1.1"
   id="svg133"
   xml:space="preserve"
   xmlns:inkscape="http://www.inkscape.org/namespaces/inkscape"
   xmlns:sodipodi="http://sodipodi.sourceforge.net/DTD/sodipodi-0.dtd"
   xmlns="http://www.w3.org/2000/svg"
   xmlns:svg="http://www.w3.org/2000/svg"
   xmlns:rdf="http://www.w3.org/1999/02/22-rdf-syntax-ns#"
   xmlns:cc="http://creativecommons.org/ns#"
   xmlns:dc="http://purl.org/dc/elements/1.1/"><defs
     id="defs127" /><sodipodi:namedview
     id="base"
     pagecolor="#ffffff"
     bordercolor="#000000"
     borderopacity="0.30"
     inkscape:pageopacity="0.0"
     inkscape:pageshadow="2"
     inkscape:zoom="0.35"
     inkscape:cx="375"
     inkscape:cy="520"
     inkscape:document-units="px"
     inkscape:current-layer="layer1"
     inkscape:showpageshadow="0"
     inkscape:pagecheckerboard="0"
     inkscape:deskcolor="#d1d1d1"
     showgrid="false" /><metadata
     id="metadata130"><rdf:RDF><cc:Work
         rdf:about=""><dc:format>image/svg+xml</dc:format><dc:type
           rdf:resource="http://purl.org/dc/dcmitype/StillImage" /></cc:Work></rdf:RDF></metadata><g
     inkscape:label="Layer 1"
     inkscape:groupmode="layer"
     id="layer1"
     transform="translate(-317.85712,-635.20579)"><path
       style="fill:#000000"
       d="m 418.11982,814.45594 c -3.24764,-0.9381 -5.08266,-4.24155 -3.93928,-7.0916 0.28527,-0.7111 0.55421,-0.0554 0.59763,1.45709 0.0434,1.5125 0.48565,2.75 0.98272,2.75 1.8777,0 2.38267,-20.11353 0.72856,-29.01937 -0.86632,-4.66434 -2.04902,-13.65563 -2.62821,-19.98063 -1.04259,-11.38544 -2.36864,-17.56538 -4.18417,-19.5 -0.59497,-0.634 -0.7113,-0.268 -0.31784,1 0.34133,1.1 -0.26415,0.42518 -1.34551,-1.4996 -1.08136,-1.92478 -1.78655,-3.79013 -1.5671,-4.14522 0.21946,-0.35508 -0.30192,-0.91459 -1.15863,-1.24333 -0.8567,-0.32875 -1.3067,-1.00375 -1,-1.5 0.30671,-0.49626 -0.14329,-1.17126 -1,-1.5 -0.8567,-0.32875 -1.27755,-1.0509 -0.93524,-1.60479 0.34232,-0.55388 0.0709,-1.00706 -0.60328,-1.00706 -0.67413,0 -0.96668,-0.25901 -0.65011,-0.57557 0.54325,-0.54325 -1.50202,-7.59836 -4.99496,-17.22997 -1.65242,-4.55646 -5.16335,-7.19446 -9.57518,-7.19446 -3.55191,0 -5.18292,-2.34632 -3.08757,-4.44167 0.90946,-0.90946 1.33626,-1.96964 0.94844,-2.35595 -0.38782,-0.38631 -1.59695,0.39771 -2.68695,1.74226 l -1.98183,2.44464 0.65425,-2.60675 c 0.57084,-2.27439 0.19495,-2.8247 -2.94823,-4.31624 -3.58096,-1.69927 -6.0878,-3.98588 -3.12215,-2.84785 1.09997,0.4221 1.55194,-0.0181 1.55194,-1.51145 0,-2.04044 -1.3992,-2.88327 -2.25277,-1.35699 -0.23069,0.4125 -0.28704,0.19981 -0.12522,-0.47263 0.39212,-1.62945 -3.50635,-4.27737 -6.29746,-4.27737 -1.22675,0 -3.35741,-0.51348 -4.73481,-1.14107 -2.20988,-1.00689 -2.92506,-0.7717 -6.08185,2 -4.06797,3.57172 -8.12081,4.06938 -11.06933,1.35923 -1.06621,-0.98001 -3.692,-2.85747 -5.8351,-4.17213 l -3.89655,-2.39029 2.25733,-1.82787 c 2.07288,-1.67851 2.1012,-1.82787 0.34654,-1.82787 -1.05093,0 -2.45078,0.54 -3.11078,1.2 -0.93333,0.93333 -1.2,0.82222 -1.2,-0.5 0,-1.10725 -0.80196,-1.7 -2.3,-1.7 -3.49369,0 -5.02514,-1.98324 -3.13999,-4.0663 1.39747,-1.5442 1.30805,-1.75 -1.01366,-2.33271 -1.40049,-0.3515 -2.54635,-1.08052 -2.54635,-1.62004 0,-0.53952 -0.83026,-0.98095 -1.84501,-0.98095 -1.84813,0 -5.15499,-2.89944 -5.15499,-4.51987 0,-0.47431 0.66069,0.0111 1.4682,1.07874 1.33901,1.77033 1.47099,1.78586 1.5,0.17643 0.0324,-1.80013 5.43333,-5.72479 7.88744,-5.73156 0.74561,-0.002 2.69263,-1.12874 4.32673,-2.50374 1.63409,-1.375 3.72405,-2.50689 4.64436,-2.51531 1.44744,-0.0132 1.47082,-0.14802 0.17327,-0.99861 -1.06498,-0.69812 -0.48496,-0.81427 2,-0.40049 2.69044,0.44799 3.15304,0.32873 2,-0.51559 -1.13073,-0.82799 -0.41605,-0.93431 2.90314,-0.4319 3.41525,0.51696 4.22791,0.38296 3.62212,-0.59723 -0.80512,-1.30271 -1.0792,-1.3127 14.22474,0.51858 l 5.25,0.62823 v -3.41953 c 0,-3.34204 3.22843,-7.76815 5.66614,-7.76815 1.48977,0 7.37448,-5.82 6.25929,-6.19047 -0.51248,-0.17024 3.60099,-0.22612 9.14104,-0.12418 9.36526,0.17234 13.67351,1.30832 12.45278,3.2835 -0.2523,0.40823 0.69403,0.52187 2.10296,0.25254 1.94501,-0.37181 2.23864,-0.71799 1.21974,-1.43803 -1.87004,-1.32153 7.64032,-0.13081 10.29261,1.28866 1.34343,0.71898 1.88075,1.76144 1.5533,3.0136 -0.3548,1.35675 0.0183,1.91438 1.28076,1.91438 0.97976,0 3.30013,0.2336 5.15638,0.51911 2.52782,0.38881 2.87297,0.29276 1.375,-0.38266 -2.48642,-1.12109 13.58695,-0.77332 18,0.38946 4.77871,1.25913 7.7092,3.56612 7.16642,5.64169 -0.35642,1.36295 0.20842,1.99215 2.17611,2.42404 5.87095,1.28864 10.55363,3.09683 10.92793,4.21975 0.21751,0.65252 -0.98902,1.9744 -2.68117,2.9375 -1.69216,0.96311 -3.07949,2.02747 -3.08297,2.36525 -0.003,0.33778 2.01953,1.38782 4.49557,2.33343 3.39519,1.29664 4.65382,2.37481 5.11994,4.38586 0.33993,1.46661 1.17123,3.11657 1.84734,3.66657 0.67612,0.55 1.29714,1.3375 1.38006,1.75 0.21554,1.0722 0.37323,1.06139 3.18128,-0.21804 2.13646,-0.97344 3.90864,-0.65431 11.38072,2.04941 5.9898,2.16736 9.00387,3.78997 9.32563,5.0204 0.30834,1.17906 2.32934,2.35697 5.75027,3.35147 2.90117,0.84339 6.29815,2.36206 7.54886,3.37482 l 2.27402,1.84139 -2.17683,1.52472 c -1.91018,1.33794 -1.9916,1.67844 -0.66467,2.77969 0.8656,0.71839 1.29825,2.1681 1.01187,3.39056 -0.62649,2.67433 0.10247,3.68412 4.65594,6.44967 3.94705,2.39723 5.20365,5.16152 3.9023,8.58433 -1.14287,3.00598 -3.00816,4.36476 -6.53862,4.76309 -2.2205,0.25054 -3,0.85815 -3,2.33849 0,1.83169 -1.00989,2.08665 -12,3.02966 -8.14544,0.69891 -13.11061,1.62497 -15.45755,2.88301 -3.02692,1.62252 -4.64606,1.75346 -13,1.05135 -5.24835,-0.44109 -11.52344,-0.71671 -13.94465,-0.61248 -9.14023,0.39349 -20.68671,7.67577 -24.59006,15.50876 -3.0685,6.15768 -3.22358,11.9229 -0.60452,22.47309 1.46388,5.89684 2.00965,12.5896 2.36429,28.99296 l 0.46106,21.32635 -2.42938,0.92365 c -2.88867,1.09827 -4.70361,1.05974 -9.03649,-0.19184 z m 5.01464,-79.80269 c 2.03966,-5.74279 9.97804,-13.53973 14.88197,-14.61681 2.35981,-0.5183 2.77435,-0.91134 1.72383,-1.63438 -0.93074,-0.6406 -0.29851,-0.73786 1.93291,-0.29734 4.59287,0.9067 9.01285,-1.14796 10.6008,-4.92786 1.59605,-3.79915 0.47382,-5.60543 -3.48259,-5.60543 -1.61701,0 -3.37851,-0.79483 -4.12756,-1.86246 -2.02023,-2.87946 -6.49813,-1.84053 -11.03713,2.56075 -5.14207,4.98607 -13.76957,17.89193 -13.76957,20.59789 0,1.81143 0.78183,1.38915 5.24658,-2.83377 3.66398,-3.46553 4.13117,-3.75583 1.54883,-0.96241 -3.63826,3.93564 -6.79541,9.96053 -6.79541,12.96788 0,3.04766 1.56747,1.42819 3.27734,-3.38606 z m -9.67317,-0.81099 c -1.01652,-1.01651 -1.85525,0.51389 -1.02122,1.86338 0.63003,1.01942 0.86558,1.02021 1.2043,0.004 0.2316,-0.69479 0.14921,-1.53513 -0.18308,-1.86742 z m 0.0789,-3.45833 c -0.31922,-0.79773 -0.55618,-0.56078 -0.60416,0.60417 -0.0434,1.05416 0.19292,1.64479 0.52522,1.3125 0.33229,-0.3323 0.36781,-1.1948 0.0789,-1.91667 z m 2.30158,-7.5625 c 0.008,-1.2375 -0.43465,-2.25 -0.98465,-2.25 -0.55,0 -0.99311,1.6875 -0.98469,3.75 0.0114,2.78938 0.26364,3.36575 0.98469,2.25 0.53316,-0.825 0.97627,-2.5125 0.98469,-3.75 z m 10.81257,-16.53775 c 1.48112,-1.67477 1.42805,-1.73115 -0.83979,-0.89222 -2.75776,1.02016 -8.44171,9.58743 -7.43812,11.21127 0.37389,0.60498 1.97851,-1.02115 3.67993,-3.72928 1.65932,-2.64111 3.72841,-5.60651 4.59798,-6.58977 z m 33.83953,4.64482 4.86321,-1.39123 -4.37524,0.54892 c -5.2477,0.65839 -8.42251,2.19446 -7.52777,3.64218 0.44048,0.7127 0.90095,0.65541 1.4148,-0.17602 0.41899,-0.67794 2.95024,-1.85867 5.625,-2.62385 z m -52.63675,-1.35707 c 0,-0.55 -0.47656,-1 -1.05902,-1 -0.58246,0 -0.7809,0.45 -0.44098,1 0.33992,0.55 0.81648,1 1.05902,1 0.24254,0 0.44098,-0.45 0.44098,-1 z m 64.48532,-2.97625 c 0.24979,-0.40416 -0.65723,-0.52238 -2.01558,-0.26272 -1.35836,0.25967 -2.46974,0.82754 -2.46974,1.26193 0,0.92714 3.82083,0.076 4.48532,-0.99921 z m -83.8951,-22.12344 c 2.70958,-2.99405 -0.70047,-2.47631 -3.5304,0.53601 -2.18514,2.32598 -2.19597,2.41204 -0.23907,1.90031 1.12734,-0.29481 2.82361,-1.39116 3.76947,-2.43632 z m 55.13895,-5.50448 c -0.33229,-0.33229 -1.1948,-0.36781 -1.91667,-0.0789 -0.79773,0.31922 -0.56078,0.55618 0.60417,0.60416 1.05416,0.0434 1.64479,-0.19293 1.3125,-0.52522 z m 20.27083,-4.01246 c 0,-0.21085 -0.9,-0.38337 -2,-0.38337 -1.1,0 -2,0.40787 -2,0.90638 0,0.49851 0.9,0.67103 2,0.38337 1.1,-0.28766 2,-0.69553 2,-0.90638 z m -48.67186,117.11663 c 0.004,-3.85 0.18518,-5.30246 0.40166,-3.2277 0.21647,2.07477 0.21284,5.22477 -0.008,7 -0.22091,1.77524 -0.39803,0.0777 -0.39359,-3.7723 z m -1.24919,-11.08333 c 0.048,-1.16495 0.28494,-1.4019 0.60416,-0.60417 0.28887,0.72187 0.25335,1.58437 -0.0789,1.91667 -0.3323,0.33229 -0.56864,-0.25834 -0.52522,-1.3125 z m -1.92106,-12.41667 c 0,-1.375 0.22698,-1.9375 0.50439,-1.25 0.27741,0.6875 0.27741,1.8125 0,2.5 -0.27741,0.6875 -0.50439,0.125 -0.50439,-1.25 z m -0.92589,-11 c 0,-1.925 0.2058,-2.7125 0.45733,-1.75 0.25152,0.9625 0.25152,2.5375 0,3.5 -0.25153,0.9625 -0.45733,0.175 -0.45733,-1.75 z m -1.15305,-8.58333 c 0.048,-1.16495 0.28494,-1.4019 0.60416,-0.60417 0.28887,0.72187 0.25335,1.58437 -0.0789,1.91667 -0.3323,0.33229 -0.56864,-0.25834 -0.52522,-1.3125 z m -16.45541,-36.95533 c -0.96498,-2.51469 -0.68031,-3.16355 0.49853,-1.13634 0.58369,1.00375 0.8506,2.03566 0.59313,2.29313 -0.25747,0.25747 -0.74872,-0.26309 -1.09166,-1.15679 z m -68.62354,-38.40232 c 0,-0.51754 0.44485,-1.21592 0.98855,-1.55194 0.56686,-0.35034 0.7345,0.0511 0.39301,0.94098 -0.66479,1.73242 -1.38156,2.04939 -1.38156,0.61096 z m -3.26667,-13.18311 c 0.67834,-0.68342 1.48524,-0.99067 1.79313,-0.68278 0.30789,0.30789 -0.24711,0.86705 -1.23333,1.24258 -1.4252,0.54268 -1.54006,0.42782 -0.5598,-0.5598 z m 43.49867,-11.87591 c 0,-1.925 0.2058,-2.7125 0.45733,-1.75 0.25152,0.9625 0.25152,2.5375 0,3.5 -0.25153,0.9625 -0.45733,0.175 -0.45733,-1.75 z m 0.768,-4.37756 c 0,-0.20765 0.7875,-0.99515 1.75,-1.75 1.58606,-1.24387 1.62143,-1.2085 0.37756,0.37756 -1.30637,1.66575 -2.12756,2.19548 -2.12756,1.37244 z m 9.73333,-7.74653 c 0.67834,-0.68342 1.48524,-0.99067 1.79313,-0.68278 0.30789,0.30789 -0.24711,0.86705 -1.23333,1.24258 -1.4252,0.54268 -1.54006,0.42782 -0.5598,-0.5598 z"
       id="path201"
       inkscape:export-filename="path201.svg"
       inkscape:export-xdpi="96"
       inkscape:export-ydpi="96" /></g></svg>
