<svg width="277" height="251" viewBox="0 0 277 251" fill="none" xmlns="http://www.w3.org/2000/svg">
<path d="M174.109 0.464127C173.079 0.690201 171.476 1.42494 170.56 2.10318C169.702 2.78142 168.386 3.29008 167.756 3.29008C167.126 3.29008 165.123 3.91179 163.292 4.64655C157.625 7.02036 156.423 7.02037 151.673 4.81612C148.182 3.17706 146.522 2.78142 142.115 2.49883C139.196 2.27275 136.162 1.87711 135.361 1.59451C132.27 0.407608 127.806 0.916275 122.941 3.00749C120.423 4.08136 117.961 5.32478 117.446 5.77693C116.931 6.22908 113.554 6.96385 109.433 7.47252C92.6063 9.67677 83.1625 12.8984 81.1593 17.2504C80.7014 18.3242 80.7587 18.9459 81.5027 20.1894L82.4757 21.7719L78.2975 23.2979C69.7695 26.4065 65.8775 29.5716 65.8775 33.5844C65.8775 35.7887 66.5644 36.3539 70.0557 37.2017C72.574 37.8799 73.0891 38.332 72.7457 39.745C72.6885 40.0276 72.574 41.4406 72.5168 42.8536L72.4596 45.397L66.7361 45.2274C61.4704 45.0578 60.8409 45.1709 59.0093 46.3578C57.3495 47.4882 57.0061 48.0534 57.0061 49.6359C57.0061 50.7663 56.6055 52.0097 56.0331 52.5749C54.7739 53.8183 54.7167 55.2878 55.8614 56.7573C57.0633 58.3399 56.8916 59.6398 55.2891 60.7137C53.9154 61.618 53.8009 61.5615 50.4241 58.5094C45.1012 53.7618 41.9533 53.3662 33.9404 56.4182C32.2806 57.0399 29.705 57.5486 28.1596 57.5486C25.9275 57.5486 24.9545 57.8877 23.5808 59.0181C22.6078 59.8094 21.8066 60.9398 21.8066 61.5615C21.8066 62.1267 21.177 63.031 20.4329 63.4831C19.6889 63.9918 18.6014 65.2352 18.1435 66.3091C16.7126 69.1916 15.1673 70.0394 12.0194 69.6437C9.67272 69.3046 9.21484 69.4742 7.38332 71.0002C6.29586 72.0175 4.5788 74.4479 3.60581 76.6521C2.00323 80.0433 1.88876 80.7215 2.46111 82.2475C3.03346 83.7735 2.91899 84.2822 1.54535 86.5995L0 89.2559L1.1447 91.1211C1.83152 92.1384 2.34664 93.3818 2.34664 93.834C2.34664 94.3427 2.74728 95.0209 3.20516 95.4165C4.00645 96.0948 4.00645 96.2643 3.20516 97.1121C2.69005 97.6773 2.17493 98.9772 2.00323 99.9946C1.48811 102.99 3.14793 104.12 8.35632 104.347C12.42 104.573 12.6489 104.686 15.2818 107.06C17.6856 109.264 18.7731 109.716 21.5204 109.716C21.8638 109.716 22.6651 109.546 23.4091 109.32C24.4394 108.981 24.6683 109.094 24.6683 110.055C24.6683 112.372 28.7892 113.051 33.1963 111.525C35.4285 110.79 35.7147 110.79 37.4317 111.807C39.6067 113.164 42.2395 113.22 46.0742 112.09C49.1077 111.185 56.6627 111.129 59.0093 111.977C59.8106 112.259 64.5611 113.503 69.5978 114.746C79.614 117.176 83.277 117.516 93.6365 116.668C98.6732 116.272 101.192 116.385 106.4 117.176L112.868 118.194L116.702 122.885C121.281 128.48 124.772 134.076 126.432 138.484C128.207 143.175 128.893 149.958 129.18 165.331C129.351 177.539 129.122 182.23 127.92 188.504C127.691 189.747 127.92 191.104 128.779 192.799C130.152 195.625 130.381 200.542 129.351 206.76C128.779 210.151 128.779 210.885 129.637 212.072C130.381 213.259 130.61 215.746 130.954 225.524C131.354 239.484 130.954 241.688 127.119 247.058C125.86 248.866 124.83 250.562 124.83 250.788C124.83 251.071 125.917 251.071 127.291 250.788C128.607 250.505 135.418 250.336 142.458 250.336C149.498 250.392 155.393 250.279 155.565 250.11C155.679 249.94 155.05 249.375 154.077 248.923C152.417 248.075 147.724 242.819 147.724 241.801C147.724 241.575 146.693 233.211 145.434 223.207C143.145 205.12 143.145 205.007 143.145 185.169C143.145 174.204 142.859 162.505 142.515 159.227C141.943 153.857 142 152.671 143.145 147.132C144.919 138.089 147.151 132.832 150.471 129.78C154.592 125.993 160.716 122.32 166.382 120.285C173.651 117.629 177.257 115.763 182.694 111.638C189.963 106.155 189.334 106.268 193.683 109.546C195.744 111.072 197.575 112.598 197.804 112.938C197.976 113.277 199.235 114.068 200.552 114.69C204.901 116.894 212.8 115.311 213.487 112.033C213.601 111.411 212.972 110.451 211.884 109.49L210.053 107.964L211.484 106.438C213.029 104.799 213.429 103.103 212.399 102.481C212.056 102.312 211.941 101.577 212.17 100.842C212.456 99.5424 210.911 98.2425 206.447 95.9817C205.531 95.5296 204.272 94.4557 203.642 93.6079C202.498 92.0819 202.498 92.0254 203.528 90.0472C204.501 88.3516 204.558 87.7864 203.986 86.3169C203.585 85.2996 203.413 84.2822 203.585 84.0562C204.043 83.2649 208.278 85.6387 208.679 86.8821C208.851 87.5038 209.824 88.2951 210.854 88.5777C212.285 89.0298 212.972 89.8776 214.002 91.9689C214.918 93.947 216.062 95.3035 217.894 96.5469C222.072 99.3164 226.994 101.577 230.257 102.255C234.549 103.047 235.866 103.725 235.866 104.968C235.866 109.151 245.996 108.416 248.572 104.12C249.659 102.255 249.831 102.199 253.208 102.199C259.275 102.199 262.709 98.9772 261.965 93.8905C261.564 91.0645 261.679 91.0645 265.971 92.421C269.52 93.4949 271.638 92.9297 273.927 90.2168C276.903 86.7691 277.075 82.078 274.442 77.3304L273.011 74.8435L275.072 73.0914C276.789 71.735 277.132 71.0567 276.96 69.7003C276.789 68.0612 276.56 67.8351 271.237 64.6135C270.035 63.8788 269.234 62.8614 269.062 61.8441C268.661 59.6398 266.544 58.2268 262.48 57.4921C260.591 57.153 258.473 56.7573 257.787 56.6443C256.699 56.4182 256.47 56.0226 256.47 54.214C256.47 52.4619 256.127 51.7271 254.753 50.5402C251.319 47.7142 246.855 47.8838 242.219 51.0489C238.899 53.3097 237.525 53.4792 235.179 51.8402C233.92 50.9359 233.576 50.2576 233.691 49.1837C233.805 47.9968 234.32 47.5447 236.381 46.9795C239.7 46.0187 240.444 45.3404 240.444 43.0797C240.444 41.6102 239.872 40.7059 237.64 38.5581L234.835 35.8452L235.923 34.4322L237.068 33.0192L235.579 32.2845C233.29 31.0976 224.361 27.7629 222.129 27.3108C219.496 26.7456 218.123 25.5022 218.123 23.5805C218.123 21.7719 216.12 20.3589 211.369 18.8329C208.793 18.0416 208.278 17.646 207.992 16.233C207.706 14.707 205.474 12.3332 204.329 12.3332C204.043 12.3332 202.383 11.8245 200.609 11.1463C197.633 10.0159 197.289 9.73328 196.03 6.90732C195.286 5.26826 194.084 3.51616 193.397 3.06401C192.653 2.61186 190.135 2.04666 187.788 1.87711C185.442 1.65103 182.236 1.14235 180.691 0.690201C177.6 -0.157593 176.971 -0.214111 174.109 0.464127ZM174.624 77.6695C177.314 77.9521 178.86 78.4042 180.233 79.4216C181.206 80.1563 182.065 81.0041 182.065 81.2302C182.065 82.3041 177.371 83.7735 167.584 85.7517C161.575 86.9951 159.857 87.6734 158.713 89.3124C158.14 90.0472 157.568 90.2733 156.71 89.9907C154.878 89.4255 154.821 89.3124 156.252 88.0125C156.938 87.3343 157.396 86.4865 157.225 86.0343C157.053 85.6387 157.454 85.017 158.026 84.6779C159.457 83.9431 160.888 81.2302 160.888 79.3651C160.888 78.1781 161.231 77.8955 163.063 77.6129C164.207 77.3869 165.581 77.1608 166.039 77.0478C166.497 76.9347 167.813 76.9912 168.901 77.1043C169.988 77.2173 172.564 77.4999 174.624 77.6695ZM144.404 89.369C147.037 94.7383 148.41 99.4294 148.754 103.781C149.04 108.246 148.582 109.151 144.69 111.92L143.145 113.051L140.684 111.638C139.367 110.846 137.364 109.32 136.334 108.19C135.246 107.059 134.044 106.155 133.701 106.155C132.671 106.155 131.068 102.934 130.782 100.108C130.553 98.0164 130.954 96.1513 132.385 92.0254C134.216 86.8256 134.331 86.656 136.277 86.3169C137.364 86.0909 139.31 85.9778 140.569 86.0343C142.744 86.0909 142.916 86.2039 144.404 89.369ZM100.791 88.2386C102.966 88.9733 104.74 89.1994 106.514 89.0298C108.174 88.8038 110.521 89.0864 113.096 89.8211C118.705 91.3471 121.853 91.1776 127.291 88.9168C128.207 88.5212 128.264 88.6907 127.92 90.0472C127.405 92.0819 122.14 101.521 120.651 103.16C119.793 104.12 118.82 104.46 117.16 104.46C114.413 104.46 112.982 103.612 108.747 99.4294C105.427 96.2078 103.367 94.9644 98.5015 93.4384C96.7845 92.8732 94.6095 92.0819 93.751 91.6297L92.1484 90.8385L93.9227 89.1429C94.8385 88.1821 95.6398 87.1647 95.6398 86.8256C95.6398 86.4865 96.0404 86.43 96.67 86.656C97.1851 86.9386 99.0739 87.6169 100.791 88.2386ZM102.394 102.481C105.541 105.986 107.373 109.546 106.915 111.355L106.514 112.768L96.67 113.164C83.3915 113.672 83.9066 113.729 75.4358 111.468C68.8538 109.716 64.8473 107.907 64.7901 106.607C64.7328 106.438 65.6486 105.703 66.7361 105.025C69.3689 103.442 70.857 103.838 72.9174 106.72C73.776 108.02 75.0351 109.207 75.722 109.49C77.439 110.112 81.2165 109.32 87.5124 107.003C94.5523 104.403 95.8115 103.668 97.4713 101.69C98.1581 100.729 99.0739 99.9946 99.4745 99.9946C99.8179 99.9381 101.134 101.068 102.394 102.481ZM163.005 102.312C164.379 102.651 165.581 102.594 167.47 101.916C170.904 100.786 171.305 100.842 174.624 102.481C176.57 103.442 177.486 104.29 177.486 105.025C177.486 106.438 177.371 106.494 171.133 107.794C168.157 108.359 164.608 109.32 163.177 109.829C159.457 111.185 158.198 111.411 156.652 111.016C154.649 110.507 154.477 109.433 155.851 105.59C157.053 102.086 158.427 100.786 160.315 101.464C160.773 101.634 162.032 101.973 163.005 102.312ZM130.038 113.277C131.583 114.52 133.93 116.894 135.132 118.533C136.963 120.963 137.421 121.981 137.421 123.959C137.421 127.406 136.563 129.215 134.846 129.667C132.041 130.345 130.897 129.159 126.833 121.585C123.113 114.577 122.197 111.468 123.342 109.603C123.857 108.812 125.974 109.999 130.038 113.277ZM177.486 109.829C177.486 109.999 175.597 111.355 173.308 112.824C168.214 116.103 154.477 120.963 153.333 119.833C152.818 119.324 153.047 118.759 154.248 117.516C157.568 114.068 166.955 110.79 176.799 109.603C177.142 109.603 177.486 109.659 177.486 109.829Z" fill="#3F3E3B"/>
</svg>
